#!OML:ASF E:\Style4\Style4.ASF
:FULLY-SPECIFIED
:DEGREES
1427
root 0.529319 16.5964 0.419693 4.12695 15.1451 3.16427
lowerback 11.8502 4.19934 -0.634302
upperback 3.59701 5.47623 -0.568876
thorax -2.85712 2.72754 -1.00494
lowerneck 7.46105 -1.39281 -5.0889
upperneck 1.26273 -2.20639 4.02751
head -0.776657 -1.16982 2.21625
rclavicle -1.43125e-014 -1.15295e-014
rhumerus -20.1971 32.2309 -46.9991
rradius 135.828
rwrist -75.2971
rhand 55.843 -4.16082
rfingers 7.12502
rthumb 73.2096 14.6249
lclavicle -1.43125e-014 -1.15295e-014
lhumerus -6.32575 -23.651 38.2623
lradius 139.507
lwrist 76.9799
lhand 35.8652 49.7891
lfingers 7.12502
lthumb 58.8884 64.6858
rfemur -23.7265 -16.2641 14.2557
rtibia 58.2709
rfoot -31.0618 -23.1073
rtoes -15.9557
lfemur -27.7514 -4.26568 -24.6247
ltibia 56.0958
lfoot -29.6164 9.18676
ltoes -17.4134
1428
root 0.531574 16.6045 0.420062 4.20978 15.0379 3.31425
lowerback 11.8599 4.24907 -0.76804
upperback 3.66368 5.5252 -0.613872
thorax -2.80034 2.75246 -0.98182
lowerneck 8.75266 -1.35539 -5.09076
upperneck -0.826488 -2.18227 4.08487
head -1.68065 -1.16224 2.29152
rclavicle 7.81224e-014 -3.53837e-014
rhumerus -21.025 30.9506 -48.6951
rradius 135.757
rwrist -75.6067
rhand 57.5695 -4.43594
rfingers 7.12502
rthumb 73.8997 19.7147
lclavicle 7.81224e-014 -3.53837e-014
lhumerus -7.29584 -22.2918 39.9431
lradius 139.73
lwrist 76.4399
lhand 36.5011 49.5345
lfingers 7.12502
lthumb 59.437 63.8926
rfemur -23.7564 -16.1527 14.1087
rtibia 58.1412
rfoot -30.8489 -23.3527
rtoes -16.8284
lfemur -27.7215 -4.21496 -24.7908
ltibia 55.9386
lfoot -29.5593 9.15401
ltoes -17.1809
1429
root 0.535246 16.6107 0.422098 4.27194 14.9025 3.42974
lowerback 11.8172 4.30179 -0.860935
upperback 3.77482 5.58544 -0.628838
thorax -2.66793 2.78329 -0.945217
lowerneck 9.76995 -1.3181 -5.08565
upperneck -2.59847 -2.15383 4.04285
head -2.45733 -1.1466 2.3306
rclavicle -7.05686e-014 4.29375e-014
rhumerus -21.8536 29.7638 -50.2923
rradius 135.885
rwrist -75.4807
rhand 58.4812 -4.85479
rfingers 7.12502
rthumb 74.2018 22.3062
lclavicle -7.05686e-014 4.29375e-014
lhumerus -8.32239 -20.9049 41.6091
lradius 140.017
lwrist 76.1765
lhand 36.7175 49.441
lfingers 7.12502
lthumb 59.623 63.6111
rfemur -23.7664 -16.0404 13.979
rtibia 58.0083
rfoot -30.7347 -23.3545
rtoes -16.8382
lfemur -27.6628 -4.1073 -24.9298
ltibia 55.7815
lfoot -29.5144 9.23903
ltoes -17.2841
1430
root 0.544291 16.6213 0.431397 4.30896 14.7871 3.38093
lowerback 11.6468 4.3328 -0.792283
upperback 3.92787 5.64081 -0.565394
thorax -2.41548 2.81232 -0.903271
lowerneck 10.495 -1.31874 -5.11068
upperneck -4.04313 -2.18007 3.90322
head -3.08593 -1.15048 2.33614
rclavicle 4.09496e-014 -6.36111e-015
rhumerus -22.7825 28.7688 -51.8875
rradius 136.123
rwrist -74.7661
rhand 58.4791 -4.76155
rfingers 7.12502
rthumb 74.2012 22.3924
lclavicle 4.09496e-014 -6.36111e-015
lhumerus -9.41427 -19.5775 43.3234
lradius 140.327
lwrist 76.0224
lhand 36.9376 49.9368
lfingers 7.12502
lthumb 59.8118 63.9132
rfemur -23.7064 -15.9743 13.9982
rtibia 57.8533
rfoot -30.8321 -23.0334
rtoes -16.1191
lfemur -27.5751 -4.00182 -24.9096
ltibia 55.647
lfoot -29.5572 9.25961
ltoes -17.204
1431
root 0.553154 16.6302 0.438765 4.34236 14.7073 3.37802
lowerback 11.5497 4.3727 -0.75704
upperback 4.06001 5.70232 -0.500523
thorax -2.22798 2.84389 -0.849196
lowerneck 10.9413 -1.36207 -5.22491
upperneck -5.11727 -2.26827 3.81925
head -3.5415 -1.18304 2.3683
rclavicle 2.94201e-014 -2.38542e-014
rhumerus -23.7563 27.6928 -53.4391
rradius 136.191
rwrist -74.3096
rhand 58.8069 -4.83686
rfingers 7.12502
rthumb 74.2986 23.427
lclavicle 2.94201e-014 -2.38542e-014
lhumerus -10.4867 -18.3944 45.0768
lradius 140.6
lwrist 75.8619
lhand 37.4112 51.0733
lfingers 7.12502
lthumb 60.2168 64.624
rfemur -23.6294 -15.9475 13.9477
rtibia 57.7255
rfoot -30.9307 -22.7247
rtoes -15.4569
lfemur -27.4964 -3.94182 -24.9409
ltibia 55.5428
lfoot -29.5467 9.15181
ltoes -16.682
1432
root 0.557002 16.6314 0.439886 4.37951 14.6213 3.44928
lowerback 11.56 4.48863 -0.724323
upperback 4.15346 5.85947 -0.513788
thorax -2.13054 2.92295 -0.897443
lowerneck 11.2673 -1.49326 -5.28975
upperneck -6.22703 -2.43711 4.03845
head -3.56877 -1.28488 2.23978
rclavicle -1.22451e-013 2.38542e-014
rhumerus -24.8815 26.2549 -54.9577
rradius 136.192
rwrist -74.2126
rhand 59.3919 -5.36736
rfingers 7.12502
rthumb 74.4572 24.9102
lclavicle -1.22451e-013 2.38542e-014
lhumerus -11.2167 -17.4328 46.645
lradius 140.764
lwrist 75.7728
lhand 37.6277 51.4694
lfingers 7.12502
lthumb 60.4013 64.8214
rfemur -23.6193 -15.908 13.8467
rtibia 57.6619
rfoot -30.8995 -22.6882
rtoes -15.3528
lfemur -27.478 -3.87965 -25.0398
ltibia 55.4903
lfoot -29.5189 9.18832
ltoes -16.8016
1433
root 0.560316 16.6315 0.439853 4.421 14.5407 3.50385
lowerback 11.6265 4.63415 -0.580208
upperback 4.17371 6.06426 -0.602987
thorax -2.11922 3.02625 -1.09969
lowerneck 11.5766 -1.65635 -5.2039
upperneck -6.8327 -2.64276 4.10436
head -3.7938 -1.39088 2.2702
rclavicle 1.80894e-014 3.18055e-015
rhumerus -26.1833 24.7338 -56.5098
rradius 136.301
rwrist -74.0785
rhand 59.7183 -6.16826
rfingers 7.12502
rthumb 74.537 25.2504
lclavicle 1.80894e-014 3.18055e-015
lhumerus -11.8076 -16.5745 47.9418
lradius 140.886
lwrist 75.649
lhand 37.7668 50.9339
lfingers 7.12502
lthumb 60.5196 64.157
rfemur -23.6599 -15.8504 13.7811
rtibia 57.65
rfoot -30.8285 -22.697
rtoes -15.6611
lfemur -27.5053 -3.81489 -25.1115
ltibia 55.4739
lfoot -29.5261 9.27887
ltoes -16.9936
1434
root 0.562433 16.6305 0.438564 4.45869 14.479 3.50554
lowerback 11.7241 4.69307 -0.461511
upperback 4.1665 6.1521 -0.65803
thorax -2.16003 3.07054 -1.24197
lowerneck 11.6466 -1.72314 -5.15443
upperneck -7.15095 -2.71967 4.14293
head -3.89878 -1.43097 2.284
rclavicle -1.64991e-014 -7.95139e-016
rhumerus -27.2675 23.5496 -57.8991
rradius 136.459
rwrist -73.8214
rhand 59.9217 -6.41704
rfingers 7.12502
rthumb 74.5835 25.7186
lclavicle -1.64991e-014 -7.95139e-016
lhumerus -12.8541 -15.6528 49.1656
lradius 140.999
lwrist 75.6271
lhand 36.5737 49.5895
lfingers 7.12502
lthumb 59.4994 63.8849
rfemur -23.7333 -15.7994 13.7895
rtibia 57.6722
rfoot -30.7713 -22.8712
rtoes -16.17
lfemur -27.5704 -3.76136 -25.1182
ltibia 55.4979
lfoot -29.5066 9.16575
ltoes -16.6596
